<?xml version="1.0" ?><svg width="64px" height="64px" viewBox="0 0 64 64" data-name="Layer 1" id="Layer_1" xmlns="http://www.w3.org/2000/svg"><title/><path d="M38.28,56.83H25.72a5.47,5.47,0,0,1-3.24-1L12.32,48.4a5.46,5.46,0,0,1-2-2.75L6.44,33.7a5.49,5.49,0,0,1,0-3.4l3.88-11.95a5.46,5.46,0,0,1,2-2.75L22.48,8.22a5.47,5.47,0,0,1,3.24-1.05H38.28a5.47,5.47,0,0,1,3.24,1.05L51.68,15.6a5.46,5.46,0,0,1,2,2.75l3.88,12a5.49,5.49,0,0,1,0,3.4L53.68,45.65a5.46,5.46,0,0,1-2,2.75L41.52,55.78A5.47,5.47,0,0,1,38.28,56.83ZM25.72,10.17a2.5,2.5,0,0,0-1.47.47L14.08,18a2.42,2.42,0,0,0-.9,1.25l-3.89,12a2.53,2.53,0,0,0,0,1.54l3.89,11.95a2.42,2.42,0,0,0,.9,1.25l10.17,7.39a2.5,2.5,0,0,0,1.47.47H38.28a2.5,2.5,0,0,0,1.47-.47L49.92,46a2.42,2.42,0,0,0,.9-1.25l3.89-11.95a2.53,2.53,0,0,0,0-1.54L50.82,19.28a2.42,2.42,0,0,0-.9-1.25L39.75,10.64a2.5,2.5,0,0,0-1.47-.47Z"/><path d="M32,37.79a1.5,1.5,0,0,1-1.5-1.5V21.5a1.5,1.5,0,0,1,3,0V36.29A1.5,1.5,0,0,1,32,37.79Z"/><path d="M32,44a1.5,1.5,0,0,1-1.5-1.5v-.21a1.5,1.5,0,1,1,3,0v.21A1.5,1.5,0,0,1,32,44Z"/></svg>