<svg width="122" height="122" viewBox="0 0 122 122" fill="none" xmlns="http://www.w3.org/2000/svg">
<circle cx="61" cy="61" r="61" fill="#F5F5F5"/>
<path d="M61 46.2583C63.8033 46.2583 66.075 48.53 66.075 51.3333C66.075 54.1367 63.8033 56.4083 61 56.4083C58.1966 56.4083 55.925 54.1367 55.925 51.3333C55.925 48.53 58.1966 46.2583 61 46.2583ZM61 68.0083C68.1775 68.0083 75.7416 71.5367 75.7416 73.0833V75.7417H46.2583V73.0833C46.2583 71.5367 53.8225 68.0083 61 68.0083ZM61 41.6667C55.6591 41.6667 51.3333 45.9925 51.3333 51.3333C51.3333 56.6742 55.6591 61 61 61C66.3408 61 70.6666 56.6742 70.6666 51.3333C70.6666 45.9925 66.3408 41.6667 61 41.6667ZM61 63.4167C54.5475 63.4167 41.6666 66.655 41.6666 73.0833V80.3333H80.3333V73.0833C80.3333 66.655 67.4525 63.4167 61 63.4167Z" fill="#989CAC"/>
</svg>
