<svg xmlns="http://www.w3.org/2000/svg" width="36" height="22" viewBox="0 0 36 22">
  <path class="cls-1" d="M939.472,1190.17a26.223,26.223,0,0,0-5.642-3.58,15.469,15.469,0,0,0-13.662,0,26.2,26.2,0,0,0-5.643,3.58,34.19,34.19,0,0,0-5.43,5.54,0.482,0.482,0,0,0,0,.58,34.359,34.359,0,0,0,5.429,5.54,26.2,26.2,0,0,0,5.643,3.58,15.469,15.469,0,0,0,13.662,0,26.223,26.223,0,0,0,5.642-3.58,34.445,34.445,0,0,0,5.43-5.54,0.48,0.48,0,0,0,0-.58A34.19,34.19,0,0,0,939.472,1190.17Zm4.015,6.29c-1.879,2.24-8.62,9.55-16.488,9.55-7.852,0-14.605-7.31-16.488-9.55l-0.384-.46,0.383-.46c1.879-2.24,8.62-9.55,16.489-9.55,7.852,0,14.605,7.31,16.488,9.55l0.383,0.46ZM927,1189.44a6.561,6.561,0,1,0,6.678,6.56A6.632,6.632,0,0,0,927,1189.44Zm0,12.13a5.571,5.571,0,1,1,5.672-5.57A5.629,5.629,0,0,1,927,1201.57Zm-10.49,5.42-0.712-.69,21.692-21.29,0.712,0.69Z" transform="translate(-909 -1185)"/>
</svg>
