<svg width="24" height="24" viewBox="0 0 24 24" fill="none" xmlns="http://www.w3.org/2000/svg">
<circle cx="12" cy="12" r="12" fill="white"/>
<path fill-rule="evenodd" clip-rule="evenodd" d="M5.31475 8.1111C4.40453 8.1111 3.66666 8.84898 3.66666 9.75919V14.2063C3.66666 15.6713 3.66666 16.4037 3.91697 16.9774C4.21962 17.6711 4.77329 18.2248 5.46698 18.5275C6.0407 18.7778 6.77316 18.7778 8.23808 18.7778H15.0952C16.5602 18.7778 17.2926 18.7778 17.8663 18.5275C18.56 18.2248 19.1137 17.6711 19.4163 16.9774C19.6667 16.4037 19.6667 15.6713 19.6667 14.2063V9.75919C19.6667 8.84897 18.9288 8.1111 18.0186 8.1111C17.3943 8.1111 16.8236 7.7584 16.5445 7.20006L15.8148 5.74073C15.7764 5.66388 15.7572 5.62546 15.7379 5.59053C15.4 4.97704 14.7657 4.58504 14.0659 4.55713C14.026 4.55554 13.9831 4.55554 13.8971 4.55554H9.43618C9.35026 4.55554 9.3073 4.55554 9.26746 4.55713C8.5676 4.58504 7.93334 4.97704 7.59538 5.59053C7.57614 5.62546 7.55693 5.66388 7.51851 5.74073L6.78884 7.20006C6.50967 7.7584 5.939 8.1111 5.31475 8.1111ZM13.2222 12.5555C13.2222 13.4147 12.5258 14.1111 11.6667 14.1111C10.8075 14.1111 10.1111 13.4147 10.1111 12.5555C10.1111 11.6964 10.8075 11 11.6667 11C12.5258 11 13.2222 11.6964 13.2222 12.5555ZM15.2222 12.5555C15.2222 14.5192 13.6303 16.1111 11.6667 16.1111C9.70298 16.1111 8.1111 14.5192 8.1111 12.5555C8.1111 10.5919 9.70298 8.99999 11.6667 8.99999C13.6303 8.99999 15.2222 10.5919 15.2222 12.5555Z" fill="#1F1F1F"/>
</svg>
