<svg xmlns="http://www.w3.org/2000/svg" width="54" height="54.969" viewBox="0 0 54 54.969">
  <path class="cls-1" d="M559.005,464.141a24.415,24.415,0,0,1,24.186,23.828h2.815a27.713,27.713,0,0,0-7.9-18.659l0,0a27.034,27.034,0,0,0-10.263-6.541,0.776,0.776,0,0,1-.181-1.363,15.474,15.474,0,0,0,6.388-9.982,15.661,15.661,0,0,0-2.426-11.649,15.182,15.182,0,0,0-9.819-6.493,14.987,14.987,0,0,0-11.46,2.466,15.737,15.737,0,0,0-3.961,21.63,15.375,15.375,0,0,0,3.961,4.028,0.776,0.776,0,0,1-.18,1.363,27.482,27.482,0,0,0-18.169,25.2h2.83A24.414,24.414,0,0,1,559.005,464.141Zm-12.49-15.555a12.478,12.478,0,1,1,12.478,12.682h0A12.6,12.6,0,0,1,546.515,448.586Z" transform="translate(-532 -433)"/>
</svg>
