<?xml version="1.0" ?><svg width="64px" height="64px" viewBox="0 0 64 64" data-name="Layer 1" id="Layer_1" xmlns="http://www.w3.org/2000/svg"><title/><path d="M40.54,52.14H11.25a5.51,5.51,0,0,1-5.5-5.5V17.36a5.51,5.51,0,0,1,5.5-5.5H40.54a5.51,5.51,0,0,1,5.5,5.5V46.64A5.51,5.51,0,0,1,40.54,52.14ZM11.25,14.86a2.5,2.5,0,0,0-2.5,2.5V46.64a2.5,2.5,0,0,0,2.5,2.5H40.54a2.5,2.5,0,0,0,2.5-2.5V17.36a2.5,2.5,0,0,0-2.5-2.5Z"/><path d="M56.75,45.25a1.44,1.44,0,0,1-.67-.16L43.87,39A1.49,1.49,0,0,1,43,37.65V26.36A1.49,1.49,0,0,1,43.87,25l12.21-6.11a1.49,1.49,0,0,1,2.17,1.34v23.5A1.52,1.52,0,0,1,57.54,45,1.6,1.6,0,0,1,56.75,45.25ZM46,36.72l9.21,4.6V22.68L46,27.29Z"/></svg>