<?xml version="1.0" standalone="no"?>
<!DOCTYPE svg PUBLIC "-//W3C//DTD SVG 20010904//EN"
 "http://www.w3.org/TR/2001/REC-SVG-20010904/DTD/svg10.dtd">
<svg version="1.0" xmlns="http://www.w3.org/2000/svg"
 width="392.000000pt" height="115.000000pt" viewBox="0 0 392.000000 115.000000"
 preserveAspectRatio="xMidYMid meet">

<g transform="translate(0.000000,115.000000) scale(0.100000,-0.100000)"
fill="#000000" stroke="none">
<path d="M700 1034 c0 -49 3 -58 30 -81 17 -13 30 -29 30 -34 0 -5 -13 -9 -30
-9 l-30 0 0 -284 0 -285 -55 58 c-30 32 -55 63 -55 69 0 6 -19 12 -42 14 l-43
3 -3 106 -3 105 -89 89 c-50 49 -90 98 -90 107 0 16 -12 18 -130 18 l-130 0 0
-323 0 -324 108 -106 107 -107 253 0 252 0 0 67 0 67 68 -67 68 -67 112 0 112
0 0 47 0 47 48 -47 48 -47 193 0 193 0 79 71 c76 69 79 73 79 116 l0 45 122
-116 121 -116 179 0 178 0 0 87 c0 87 0 87 -37 125 l-37 38 37 0 37 0 0 67 c0
66 -1 68 -42 110 l-42 43 42 0 42 0 0 88 0 87 -95 95 c-52 52 -95 100 -95 107
0 10 -57 13 -265 13 l-265 0 0 -47 0 -47 -35 34 c-19 19 -35 40 -35 47 0 10
-29 13 -125 13 l-125 0 0 -42 0 -42 -30 29 c-16 16 -30 35 -30 42 0 10 -22 13
-86 13 l-86 0 -74 71 c-40 40 -76 80 -79 90 -6 17 -18 19 -131 19 l-124 0 0
-56z m240 1 l0 -45 -110 0 -110 0 0 45 0 45 110 0 110 0 0 -45z m-640 -355 l0
-220 135 0 135 0 0 -100 0 -100 -245 0 -245 0 0 320 0 320 110 0 110 0 0 -220z
m640 -100 l0 -320 -110 0 -110 0 0 320 0 320 110 0 110 0 0 -320z m320 99 l0
-220 48 3 47 3 3 218 2 217 105 0 105 0 0 -249 0 -249 -77 -71 -77 -71 -188 0
-188 0 0 320 0 320 110 0 110 0 0 -221z m910 136 l0 -85 -135 0 -135 0 0 -45
0 -45 135 0 135 0 0 -65 0 -65 -135 0 -135 0 0 -40 0 -40 135 0 135 0 0 -85 0
-85 -166 0 -166 0 -79 71 -79 71 0 249 0 249 245 0 245 0 0 -85z"/>
<path d="M2540 745 l0 -344 128 -124 c70 -68 153 -147 185 -175 l57 -52 135 0
135 0 0 67 0 67 68 -67 68 -67 193 0 193 0 79 71 79 71 0 252 0 251 -95 95
c-52 52 -95 100 -95 107 0 10 -31 13 -125 13 l-125 0 0 -42 0 -42 -30 29 c-16
16 -30 35 -30 42 0 10 -29 13 -130 13 l-130 0 0 -67 0 -67 -50 49 c-27 27 -50
57 -50 67 0 12 -8 18 -23 18 -24 0 -177 145 -177 168 0 9 -34 12 -130 12
l-130 0 0 -345z m240 245 l0 -90 100 0 100 0 0 -100 0 -100 -100 0 -100 0 0
-120 0 -120 100 0 100 0 0 -100 0 -100 -131 0 -130 0 -80 73 -79 72 0 338 0
337 110 0 110 0 0 -90z m560 -311 l0 -220 48 3 47 3 3 218 2 217 105 0 105 0
0 -249 0 -249 -76 -71 -76 -71 -189 0 -189 0 0 320 0 320 110 0 110 0 0 -221z
m-240 -261 l0 -72 -49 48 c-27 27 -51 59 -54 72 -4 23 -2 24 49 24 l54 0 0
-72z"/>
</g>
</svg>
